<svg width="100" height="100" viewBox="0 0 100 100" fill="none" xmlns="http://www.w3.org/2000/svg">
<path d="M13 27C12.4696 27 11.9609 27.2107 11.5858 27.5858C11.2107 27.9609 11 28.4696 11 29C11 29.5304 11.2107 30.0391 11.5858 30.4142C11.9609 30.7893 12.4696 31 13 31C13.5304 31 14.0391 30.7893 14.4142 30.4142C14.7893 30.0391 15 29.5304 15 29C15 28.4696 14.7893 27.9609 14.4142 27.5858C14.0391 27.2107 13.5304 27 13 27Z" fill="#EE3E54"/>
<path d="M77 12C76.7348 12 76.4804 12.1054 76.2929 12.2929C76.1054 12.4804 76 12.7348 76 13C76 13.2652 76.1054 13.5196 76.2929 13.7071C76.4804 13.8946 76.7348 14 77 14C77.2652 14 77.5196 13.8946 77.7071 13.7071C77.8946 13.5196 78 13.2652 78 13C78 12.7348 77.8946 12.4804 77.7071 12.2929C77.5196 12.1054 77.2652 12 77 12Z" fill="#F1BC19"/>
<path d="M50 13C40.187 13 30.7759 16.8982 23.837 23.837C16.8982 30.7759 13 40.187 13 50C13 59.813 16.8982 69.2241 23.837 76.1629C30.7759 83.1018 40.187 87 50 87C59.813 87 69.2241 83.1018 76.1629 76.1629C83.1018 69.2241 87 59.813 87 50C87 40.187 83.1018 30.7759 76.1629 23.837C69.2241 16.8982 59.813 13 50 13Z" fill="#FCE0A2"/>
<path d="M83 11C81.9391 11 80.9217 11.4214 80.1716 12.1716C79.4214 12.9217 79 13.9391 79 15C79 16.0609 79.4214 17.0783 80.1716 17.8284C80.9217 18.5786 81.9391 19 83 19C84.0609 19 85.0783 18.5786 85.8284 17.8284C86.5786 17.0783 87 16.0609 87 15C87 13.9391 86.5786 12.9217 85.8284 12.1716C85.0783 11.4214 84.0609 11 83 11Z" fill="#F1BC19"/>
<path d="M87 22C86.4696 22 85.9609 22.2107 85.5858 22.5858C85.2107 22.9609 85 23.4696 85 24C85 24.5304 85.2107 25.0391 85.5858 25.4142C85.9609 25.7893 86.4696 26 87 26C87.5304 26 88.0391 25.7893 88.4142 25.4142C88.7893 25.0391 89 24.5304 89 24C89 23.4696 88.7893 22.9609 88.4142 22.5858C88.0391 22.2107 87.5304 22 87 22Z" fill="#EE3E54"/>
<path d="M81 74C80.4696 74 79.9609 74.2107 79.5858 74.5858C79.2107 74.9609 79 75.4696 79 76C79 76.5304 79.2107 77.0391 79.5858 77.4142C79.9609 77.7893 80.4696 78 81 78C81.5304 78 82.0391 77.7893 82.4142 77.4142C82.7893 77.0391 83 76.5304 83 76C83 75.4696 82.7893 74.9609 82.4142 74.5858C82.0391 74.2107 81.5304 74 81 74ZM15 59C13.9391 59 12.9217 59.4214 12.1716 60.1716C11.4214 60.9217 11 61.9391 11 63C11 64.0609 11.4214 65.0783 12.1716 65.8284C12.9217 66.5786 13.9391 67 15 67C16.0609 67 17.0783 66.5786 17.8284 65.8284C18.5786 65.0783 19 64.0609 19 63C19 61.9391 18.5786 60.9217 17.8284 60.1716C17.0783 59.4214 16.0609 59 15 59Z" fill="#FBCD59"/>
<path d="M25 85C24.4696 85 23.9609 85.2107 23.5858 85.5858C23.2107 85.9609 23 86.4696 23 87C23 87.5304 23.2107 88.0391 23.5858 88.4142C23.9609 88.7893 24.4696 89 25 89C25.5304 89 26.0391 88.7893 26.4142 88.4142C26.7893 88.0391 27 87.5304 27 87C27 86.4696 26.7893 85.9609 26.4142 85.5858C26.0391 85.2107 25.5304 85 25 85Z" fill="#EE3E54"/>
<path d="M18.5 51C17.837 51 17.2011 51.2634 16.7322 51.7322C16.2634 52.2011 16 52.837 16 53.5C16 54.163 16.2634 54.7989 16.7322 55.2678C17.2011 55.7366 17.837 56 18.5 56C19.163 56 19.7989 55.7366 20.2678 55.2678C20.7366 54.7989 21 54.163 21 53.5C21 52.837 20.7366 52.2011 20.2678 51.7322C19.7989 51.2634 19.163 51 18.5 51Z" fill="white"/>
<path d="M21 66C20.7348 66 20.4804 66.1054 20.2929 66.2929C20.1054 66.4804 20 66.7348 20 67C20 67.2652 20.1054 67.5196 20.2929 67.7071C20.4804 67.8946 20.7348 68 21 68C21.2652 68 21.5196 67.8946 21.7071 67.7071C21.8946 67.5196 22 67.2652 22 67C22 66.7348 21.8946 66.4804 21.7071 66.2929C21.5196 66.1054 21.2652 66 21 66Z" fill="#F1BC19"/>
<path d="M80 33C79.7348 33 79.4804 33.1054 79.2929 33.2929C79.1054 33.4804 79 33.7348 79 34C79 34.2652 79.1054 34.5196 79.2929 34.7071C79.4804 34.8946 79.7348 35 80 35C80.2652 35 80.5196 34.8946 80.7071 34.7071C80.8946 34.5196 81 34.2652 81 34C81 33.7348 80.8946 33.4804 80.7071 33.2929C80.5196 33.1054 80.2652 33 80 33Z" fill="white"/>
<path d="M50 25.625C46.8154 25.625 43.6621 26.2522 40.7199 27.4709C37.7778 28.6896 35.1045 30.4758 32.8527 32.7277C30.6008 34.9795 28.8146 37.6528 27.5959 40.5949C26.3772 43.5371 25.75 46.6904 25.75 49.875C25.75 53.0596 26.3772 56.2129 27.5959 59.1551C28.8146 62.0972 30.6008 64.7705 32.8527 67.0223C35.1045 69.2742 37.7778 71.0604 40.7199 72.2791C43.6621 73.4978 46.8154 74.125 50 74.125C53.1846 74.125 56.3379 73.4978 59.2801 72.2791C62.2222 71.0604 64.8955 69.2742 67.1473 67.0223C69.3992 64.7705 71.1854 62.0972 72.4041 59.1551C73.6228 56.2129 74.25 53.0596 74.25 49.875C74.25 46.6904 73.6228 43.5371 72.4041 40.5949C71.1854 37.6528 69.3992 34.9795 67.1473 32.7277C64.8955 30.4758 62.2222 28.6896 59.2801 27.4709C56.3379 26.2522 53.1846 25.625 50 25.625Z" fill="#78A2D2"/>
<path d="M68.164 59.4449C68.091 59.4449 68.016 59.4279 67.945 59.3939C67.697 59.2729 67.594 58.9739 67.715 58.7259C67.847 58.4549 67.971 58.1829 68.09 57.9079C68.55 56.8399 68.916 55.7219 69.177 54.5899C69.239 54.3199 69.51 54.1529 69.777 54.2149C70.046 54.2779 70.214 54.5459 70.152 54.8149C69.877 56.0059 69.492 57.1809 69.008 58.3049C68.883 58.5939 68.752 58.8799 68.613 59.1639C68.527 59.3419 68.349 59.4449 68.164 59.4449Z" fill="#472B29"/>
<path d="M70.264 52.336C70.249 52.336 70.234 52.335 70.219 52.334C69.944 52.31 69.741 52.066 69.766 51.791C69.805 51.362 69.829 50.934 69.84 50.505C69.907 47.839 69.45 45.232 68.482 42.753C68.381 42.496 68.509 42.206 68.766 42.106C69.025 42.002 69.313 42.131 69.414 42.39C70.431 44.992 70.911 47.731 70.84 50.53C70.829 50.981 70.803 51.431 70.762 51.882C70.738 52.141 70.52 52.336 70.264 52.336Z" fill="#472B29"/>
<path d="M35.107 36.532C34.984 36.532 34.862 36.487 34.766 36.397C34.564 36.209 34.554 35.892 34.742 35.691C38.141 32.049 42.741 29.751 47.692 29.216C47.969 29.193 48.213 29.386 48.243 29.659C48.273 29.933 48.074 30.18 47.8 30.21C43.087 30.719 38.709 32.907 35.473 36.372C35.375 36.479 35.241 36.532 35.107 36.532Z" fill="#472B29"/>
<path d="M36.138 65.284C36.015 65.284 35.893 65.239 35.797 65.149C28.693 58.517 27.076 48.011 31.863 39.601C32 39.359 32.305 39.276 32.545 39.413C32.785 39.55 32.869 39.855 32.732 40.095C28.175 48.101 29.716 58.103 36.48 64.418C36.682 64.606 36.692 64.923 36.504 65.124C36.405 65.23 36.271 65.284 36.138 65.284Z" fill="#472B29"/>
<path d="M58.889 68.769C58.703 68.769 58.524 68.665 58.438 68.486C58.318 68.238 58.422 67.939 58.671 67.819C60.873 66.757 62.843 65.304 64.527 63.503C65.206 62.774 65.834 61.992 66.393 61.178C66.549 60.951 66.862 60.893 67.088 61.049C67.316 61.205 67.374 61.516 67.217 61.744C66.63 62.599 65.971 63.421 65.258 64.184C63.489 66.078 61.42 67.604 59.106 68.719C59.036 68.753 58.962 68.769 58.889 68.769Z" fill="#472B29"/>
<path d="M46.458 73.5V56.5H40.437V50.522H46.458V44.306C46.321 38.729 50.617 33.304 60.562 36.312L60.541 41.583L57.033 41.561C54.334 41.561 53.405 42.424 53.405 44.306V50.522H60.562L59.304 56.5H53.405V73.5" fill="white"/>
<path d="M53.905 73.5H52.905V56H58.898L59.946 51.022H52.905V44.306C52.905 42.062 54.178 41.061 57.033 41.061L60.043 41.08L60.061 36.686C55.787 35.466 52.282 35.773 49.907 37.582C47.965 39.061 46.889 41.508 46.958 44.294V51.023H40.937V56H46.958V73.5H45.958V57H39.937V50.022H45.958V44.306C45.882 41.207 47.1 38.461 49.301 36.785C51.189 35.347 54.699 34.017 60.707 35.833L61.064 35.94L61.04 42.085L57.031 42.061C54.417 42.061 53.906 42.884 53.906 44.306V50.022H61.179L59.71 57H53.905V73.5Z" fill="#472B29"/>
<path d="M50 74.825C36.243 74.825 25.05 63.633 25.05 49.875C25.05 36.117 36.243 24.925 50 24.925C63.757 24.925 74.95 36.117 74.95 49.875C74.95 63.633 63.757 74.825 50 74.825ZM50 26.3251C37.015 26.3251 26.45 36.889 26.45 49.875C26.45 62.861 37.015 73.4251 50 73.4251C62.985 73.4251 73.55 62.861 73.55 49.875C73.55 36.889 62.985 26.3251 50 26.3251Z" fill="#472B29"/>
</svg>
