<svg width="100" height="100" viewBox="0 0 100 100" fill="none" xmlns="http://www.w3.org/2000/svg">
<path d="M77 12C76.7348 12 76.4804 12.1054 76.2929 12.2929C76.1054 12.4804 76 12.7348 76 13C76 13.2652 76.1054 13.5196 76.2929 13.7071C76.4804 13.8946 76.7348 14 77 14C77.2652 14 77.5196 13.8946 77.7071 13.7071C77.8946 13.5196 78 13.2652 78 13C78 12.7348 77.8946 12.4804 77.7071 12.2929C77.5196 12.1054 77.2652 12 77 12Z" fill="#F1BC19"/>
<path d="M50 13C40.187 13 30.7759 16.8982 23.837 23.837C16.8982 30.7759 13 40.187 13 50C13 59.813 16.8982 69.2241 23.837 76.1629C30.7759 83.1018 40.187 87 50 87C59.813 87 69.2241 83.1018 76.1629 76.1629C83.1018 69.2241 87 59.813 87 50C87 40.187 83.1018 30.7759 76.1629 23.837C69.2241 16.8982 59.813 13 50 13Z" fill="#FCE0A2"/>
<path d="M83 11C81.9391 11 80.9217 11.4214 80.1716 12.1716C79.4214 12.9217 79 13.9391 79 15C79 16.0609 79.4214 17.0783 80.1716 17.8284C80.9217 18.5786 81.9391 19 83 19C84.0609 19 85.0783 18.5786 85.8284 17.8284C86.5786 17.0783 87 16.0609 87 15C87 13.9391 86.5786 12.9217 85.8284 12.1716C85.0783 11.4214 84.0609 11 83 11Z" fill="#F1BC19"/>
<path d="M87 22C86.4696 22 85.9609 22.2107 85.5858 22.5858C85.2107 22.9609 85 23.4696 85 24C85 24.5304 85.2107 25.0391 85.5858 25.4142C85.9609 25.7893 86.4696 26 87 26C87.5304 26 88.0391 25.7893 88.4142 25.4142C88.7893 25.0391 89 24.5304 89 24C89 23.4696 88.7893 22.9609 88.4142 22.5858C88.0391 22.2107 87.5304 22 87 22Z" fill="#8889B9"/>
<path d="M81 74C80.4696 74 79.9609 74.2107 79.5858 74.5858C79.2107 74.9609 79 75.4696 79 76C79 76.5304 79.2107 77.0391 79.5858 77.4142C79.9609 77.7893 80.4696 78 81 78C81.5304 78 82.0391 77.7893 82.4142 77.4142C82.7893 77.0391 83 76.5304 83 76C83 75.4696 82.7893 74.9609 82.4142 74.5858C82.0391 74.2107 81.5304 74 81 74ZM15 59C13.9391 59 12.9217 59.4214 12.1716 60.1716C11.4214 60.9217 11 61.9391 11 63C11 64.0609 11.4214 65.0783 12.1716 65.8284C12.9217 66.5786 13.9391 67 15 67C16.0609 67 17.0783 66.5786 17.8284 65.8284C18.5786 65.0783 19 64.0609 19 63C19 61.9391 18.5786 60.9217 17.8284 60.1716C17.0783 59.4214 16.0609 59 15 59Z" fill="#FBCD59"/>
<path d="M25 85C24.4696 85 23.9609 85.2107 23.5858 85.5858C23.2107 85.9609 23 86.4696 23 87C23 87.5304 23.2107 88.0391 23.5858 88.4142C23.9609 88.7893 24.4696 89 25 89C25.5304 89 26.0391 88.7893 26.4142 88.4142C26.7893 88.0391 27 87.5304 27 87C27 86.4696 26.7893 85.9609 26.4142 85.5858C26.0391 85.2107 25.5304 85 25 85Z" fill="#8889B9"/>
<path d="M18.5 49C17.837 49 17.2011 49.2634 16.7322 49.7322C16.2634 50.2011 16 50.837 16 51.5C16 52.163 16.2634 52.7989 16.7322 53.2678C17.2011 53.7366 17.837 54 18.5 54C19.163 54 19.7989 53.7366 20.2678 53.2678C20.7366 52.7989 21 52.163 21 51.5C21 50.837 20.7366 50.2011 20.2678 49.7322C19.7989 49.2634 19.163 49 18.5 49ZM79.5 32C79.1022 32 78.7206 32.158 78.4393 32.4393C78.158 32.7206 78 33.1022 78 33.5C78 33.8978 78.158 34.2794 78.4393 34.5607C78.7206 34.842 79.1022 35 79.5 35C79.8978 35 80.2794 34.842 80.5607 34.5607C80.842 34.2794 81 33.8978 81 33.5C81 33.1022 80.842 32.7206 80.5607 32.4393C80.2794 32.158 79.8978 32 79.5 32Z" fill="white"/>
<path d="M50 25.625C46.8154 25.625 43.6621 26.2522 40.7199 27.4709C37.7778 28.6896 35.1045 30.4758 32.8527 32.7277C30.6008 34.9795 28.8146 37.6528 27.5959 40.5949C26.3772 43.5371 25.75 46.6904 25.75 49.875C25.75 53.0596 26.3772 56.2129 27.5959 59.1551C28.8146 62.0972 30.6008 64.7705 32.8527 67.0223C35.1045 69.2742 37.7778 71.0604 40.7199 72.2791C43.6621 73.4978 46.8154 74.125 50 74.125C53.1846 74.125 56.3379 73.4978 59.2801 72.2791C62.2222 71.0604 64.8955 69.2742 67.1473 67.0223C69.3992 64.7705 71.1854 62.0972 72.4041 59.1551C73.6228 56.2129 74.25 53.0596 74.25 49.875C74.25 46.6904 73.6228 43.5371 72.4041 40.5949C71.1854 37.6528 69.3992 34.9795 67.1473 32.7277C64.8955 30.4758 62.2222 28.6896 59.2801 27.4709C56.3379 26.2522 53.1846 25.625 50 25.625Z" fill="#48BED8"/>
<path d="M50 74.825C36.243 74.825 25.05 63.633 25.05 49.875C25.05 36.117 36.243 24.925 50 24.925C63.757 24.925 74.95 36.117 74.95 49.875C74.95 63.633 63.757 74.825 50 74.825ZM50 26.3251C37.015 26.3251 26.45 36.889 26.45 49.875C26.45 62.861 37.015 73.4251 50 73.4251C62.985 73.4251 73.55 62.861 73.55 49.875C73.55 36.889 62.985 26.3251 50 26.3251Z" fill="#472B29"/>
<path d="M69.424 44.625C69.21 44.625 69.012 44.486 68.946 44.271C68.858 43.984 68.763 43.7 68.662 43.418C68.27 42.324 67.776 41.259 67.192 40.249C67.053 40.011 67.135 39.704 67.374 39.566C67.613 39.425 67.919 39.509 68.057 39.749C68.671 40.81 69.191 41.931 69.603 43.08C69.709 43.377 69.809 43.675 69.901 43.977C69.982 44.241 69.834 44.521 69.569 44.602C69.521 44.618 69.472 44.625 69.424 44.625Z" fill="#472B29"/>
<path d="M50 70.75C38.489 70.75 29.125 61.413 29.125 49.937C29.125 38.461 38.489 29.125 50 29.125C55.975 29.125 61.674 31.685 65.636 36.148C65.935 36.485 66.224 36.833 66.501 37.189C66.67 37.407 66.631 37.72 66.414 37.89C66.196 38.062 65.882 38.021 65.712 37.802C65.448 37.463 65.172 37.133 64.888 36.812C61.116 32.562 55.689 30.124 50 30.124C39.041 30.124 30.125 39.012 30.125 49.937C30.125 60.862 39.041 69.75 50 69.75C60.959 69.75 69.875 60.862 69.875 49.937C69.875 48.942 69.8 47.941 69.653 46.964C69.612 46.692 69.8 46.437 70.073 46.396C70.353 46.355 70.601 46.543 70.642 46.816C70.796 47.841 70.875 48.892 70.875 49.937C70.875 61.413 61.511 70.75 50 70.75Z" fill="#472B29"/>
<path d="M48.656 58.4849L44.301 62.5059C44.301 62.5059 43.961 62.7669 43.588 62.6029L44.422 55.1329L48.656 58.4849Z" fill="#B5CFE4"/>
<path d="M43.843 62.907C43.732 62.907 43.612 62.886 43.489 62.832L43.321 62.759L44.225 54.658L49.041 58.471L44.471 62.69C44.444 62.711 44.184 62.907 43.843 62.907ZM44.621 55.609L43.863 62.407C44.02 62.401 44.144 62.311 44.151 62.306L48.273 58.499L44.621 55.609Z" fill="#472B29"/>
<path d="M62.72 38.5141L57.949 62.8791C57.949 62.8791 57.282 64.5691 55.446 63.7581L44.435 55.2081L40.431 53.2481L33.691 50.9511C33.691 50.9511 32.656 50.5801 32.556 49.7691C32.456 48.9581 33.723 48.5191 33.723 48.5191L60.518 37.8741C60.518 37.8711 62.72 36.8911 62.72 38.5141Z" fill="white"/>
<path d="M56.384 64.229C56.057 64.229 55.71 64.148 55.345 63.987L44.282 55.405L40.322 53.472L33.612 51.187C33.56 51.168 32.427 50.752 32.309 49.798C32.185 48.798 33.583 48.302 33.643 48.281L60.426 37.64L60.429 37.647C60.761 37.462 61.636 37.229 62.192 37.379C62.483 37.456 62.97 37.707 62.97 38.514L62.965 38.562L58.194 62.927C58.169 63.004 57.856 63.775 57.079 64.094C56.859 64.184 56.627 64.229 56.384 64.229ZM60.74 38.051V38.053L60.611 38.105L33.816 48.75C33.795 48.758 32.732 49.146 32.804 49.737C32.883 50.378 33.767 50.712 33.776 50.715L40.512 53.011L44.545 54.983L55.6 63.561C56.056 63.753 56.506 63.788 56.89 63.631C57.473 63.392 57.715 62.793 57.717 62.787L62.47 38.49C62.466 38.216 62.388 38.034 62.234 37.934C61.858 37.693 61.083 37.921 60.74 38.051Z" fill="#472B29"/>
<path d="M43.588 62.604C43.588 62.604 43.267 62.574 42.866 61.289C42.466 60.005 40.43 53.246 40.43 53.246L56.614 42.837C56.614 42.837 57.548 42.262 57.515 42.837C57.515 42.837 57.681 42.938 57.181 43.412C56.681 43.886 44.467 55.003 44.467 55.003L43.588 62.604Z" fill="#D2E5F1"/>
<path d="M43.808 62.875L43.565 62.853C43.383 62.836 43.019 62.621 42.627 61.364C42.227 60.08 40.19 53.319 40.19 53.319L40.135 53.138L40.294 53.036L56.478 42.628C56.697 42.492 57.232 42.206 57.555 42.399C57.628 42.442 57.741 42.541 57.763 42.743L57.79 42.864C57.811 43.063 57.677 43.289 57.354 43.594C56.872 44.051 45.793 54.136 44.706 55.126L43.808 62.875ZM40.723 53.354C41.049 54.436 42.743 60.055 43.104 61.214C43.216 61.573 43.319 61.823 43.406 61.995L44.229 54.881L44.298 54.818C44.42 54.707 56.516 43.697 57.008 43.229C57.149 43.095 57.22 43.005 57.257 42.952L57.264 42.832C57.152 42.846 56.925 42.938 56.743 43.05L40.723 53.354Z" fill="#472B29"/>
<path d="M56.384 64.479C56.024 64.479 55.642 64.391 55.244 64.215L55.155 64.164L48.446 59.362L44.64 62.873C44.551 62.946 44.045 63.315 43.443 63.084C42.851 62.923 42.507 61.819 42.388 61.438C42.053 60.363 40.569 55.442 40.096 53.874L40.025 53.639L33.531 51.425C33.469 51.403 32.197 50.935 32.061 49.83C31.943 48.872 32.948 48.258 33.561 48.046L60.335 37.409L60.338 37.417C60.762 37.208 61.745 36.933 62.407 37.187C62.711 37.305 63.221 37.633 63.221 38.515L58.44 62.976C58.378 63.156 58.034 63.973 57.174 64.327C56.923 64.428 56.66 64.479 56.384 64.479ZM55.694 63.32C56.117 63.498 56.487 63.523 56.794 63.399C57.264 63.207 57.482 62.7 57.484 62.695L62.23 38.418C62.221 38.321 62.18 38.197 62.099 38.146C61.879 38.003 61.319 38.107 60.915 38.252L60.914 38.254L33.908 48.982C33.579 49.098 33.017 49.42 33.052 49.706C33.104 50.126 33.702 50.423 33.86 50.479L40.807 52.847L40.892 53.061C40.892 53.061 40.953 53.254 41.052 53.583C41.525 55.15 43.007 60.064 43.342 61.14C43.563 61.85 43.74 62.088 43.793 62.147C43.889 62.185 44.003 62.105 44.004 62.103L48.366 58.075L55.694 63.32Z" fill="#472B29"/>
</svg>
