<svg width="100" height="100" viewBox="0 0 100 100" fill="none" xmlns="http://www.w3.org/2000/svg">
<path d="M13 27C12.4696 27 11.9609 27.2107 11.5858 27.5858C11.2107 27.9609 11 28.4696 11 29C11 29.5304 11.2107 30.0391 11.5858 30.4142C11.9609 30.7893 12.4696 31 13 31C13.5304 31 14.0391 30.7893 14.4142 30.4142C14.7893 30.0391 15 29.5304 15 29C15 28.4696 14.7893 27.9609 14.4142 27.5858C14.0391 27.2107 13.5304 27 13 27Z" fill="#EE3E54"/>
<path d="M77 12C76.7348 12 76.4804 12.1054 76.2929 12.2929C76.1054 12.4804 76 12.7348 76 13C76 13.2652 76.1054 13.5196 76.2929 13.7071C76.4804 13.8946 76.7348 14 77 14C77.2652 14 77.5196 13.8946 77.7071 13.7071C77.8946 13.5196 78 13.2652 78 13C78 12.7348 77.8946 12.4804 77.7071 12.2929C77.5196 12.1054 77.2652 12 77 12Z" fill="#F1BC19"/>
<path d="M50 13C40.187 13 30.7759 16.8982 23.837 23.837C16.8982 30.7759 13 40.187 13 50C13 59.813 16.8982 69.2241 23.837 76.1629C30.7759 83.1018 40.187 87 50 87C59.813 87 69.2241 83.1018 76.1629 76.1629C83.1018 69.2241 87 59.813 87 50C87 40.187 83.1018 30.7759 76.1629 23.837C69.2241 16.8982 59.813 13 50 13Z" fill="#FCE0A2"/>
<path d="M83 11C81.9391 11 80.9217 11.4214 80.1716 12.1716C79.4214 12.9217 79 13.9391 79 15C79 16.0609 79.4214 17.0783 80.1716 17.8284C80.9217 18.5786 81.9391 19 83 19C84.0609 19 85.0783 18.5786 85.8284 17.8284C86.5786 17.0783 87 16.0609 87 15C87 13.9391 86.5786 12.9217 85.8284 12.1716C85.0783 11.4214 84.0609 11 83 11Z" fill="#F1BC19"/>
<path d="M87 22C86.4696 22 85.9609 22.2107 85.5858 22.5858C85.2107 22.9609 85 23.4696 85 24C85 24.5304 85.2107 25.0391 85.5858 25.4142C85.9609 25.7893 86.4696 26 87 26C87.5304 26 88.0391 25.7893 88.4142 25.4142C88.7893 25.0391 89 24.5304 89 24C89 23.4696 88.7893 22.9609 88.4142 22.5858C88.0391 22.2107 87.5304 22 87 22Z" fill="#EE3E54"/>
<path d="M81 74C80.4696 74 79.9609 74.2107 79.5858 74.5858C79.2107 74.9609 79 75.4696 79 76C79 76.5304 79.2107 77.0391 79.5858 77.4142C79.9609 77.7893 80.4696 78 81 78C81.5304 78 82.0391 77.7893 82.4142 77.4142C82.7893 77.0391 83 76.5304 83 76C83 75.4696 82.7893 74.9609 82.4142 74.5858C82.0391 74.2107 81.5304 74 81 74ZM15 59C13.9391 59 12.9217 59.4214 12.1716 60.1716C11.4214 60.9217 11 61.9391 11 63C11 64.0609 11.4214 65.0783 12.1716 65.8284C12.9217 66.5786 13.9391 67 15 67C16.0609 67 17.0783 66.5786 17.8284 65.8284C18.5786 65.0783 19 64.0609 19 63C19 61.9391 18.5786 60.9217 17.8284 60.1716C17.0783 59.4214 16.0609 59 15 59Z" fill="#FBCD59"/>
<path d="M25 85C24.4696 85 23.9609 85.2107 23.5858 85.5858C23.2107 85.9609 23 86.4696 23 87C23 87.5304 23.2107 88.0391 23.5858 88.4142C23.9609 88.7893 24.4696 89 25 89C25.5304 89 26.0391 88.7893 26.4142 88.4142C26.7893 88.0391 27 87.5304 27 87C27 86.4696 26.7893 85.9609 26.4142 85.5858C26.0391 85.2107 25.5304 85 25 85Z" fill="#EE3E54"/>
<path d="M18.5 51C17.837 51 17.2011 51.2634 16.7322 51.7322C16.2634 52.2011 16 52.837 16 53.5C16 54.163 16.2634 54.7989 16.7322 55.2678C17.2011 55.7366 17.837 56 18.5 56C19.163 56 19.7989 55.7366 20.2678 55.2678C20.7366 54.7989 21 54.163 21 53.5C21 52.837 20.7366 52.2011 20.2678 51.7322C19.7989 51.2634 19.163 51 18.5 51Z" fill="white"/>
<path d="M21 66C20.7348 66 20.4804 66.1054 20.2929 66.2929C20.1054 66.4804 20 66.7348 20 67C20 67.2652 20.1054 67.5196 20.2929 67.7071C20.4804 67.8946 20.7348 68 21 68C21.2652 68 21.5196 67.8946 21.7071 67.7071C21.8946 67.5196 22 67.2652 22 67C22 66.7348 21.8946 66.4804 21.7071 66.2929C21.5196 66.1054 21.2652 66 21 66Z" fill="#F1BC19"/>
<path d="M80 33C79.7348 33 79.4804 33.1054 79.2929 33.2929C79.1054 33.4804 79 33.7348 79 34C79 34.2652 79.1054 34.5196 79.2929 34.7071C79.4804 34.8946 79.7348 35 80 35C80.2652 35 80.5196 34.8946 80.7071 34.7071C80.8946 34.5196 81 34.2652 81 34C81 33.7348 80.8946 33.4804 80.7071 33.2929C80.5196 33.1054 80.2652 33 80 33Z" fill="white"/>
<path d="M39.195 74.8799C39.188 73.1579 39.179 70.0019 39.201 68.1309C39.218 66.7679 38.435 66.2339 37.751 65.9199C37.286 65.7059 36.745 65.517 36.173 65.316C35.365 65.032 34.53 64.7379 33.972 64.3909C31.514 62.8609 29.847 60.4919 28.876 57.1479C27.809 53.4709 27.472 49.4859 27.848 44.9609C28.014 42.9639 28.302 40.868 28.729 38.553C29.528 34.21 32.058 31.125 36.46 29.122C38.796 28.06 41.38 27.399 44.839 26.981C46.377 26.794 47.978 26.7 49.597 26.7C51.911 26.7 54.286 26.885 56.858 27.263C60.07 27.738 63.452 28.456 66.421 30.481C68.661 32.009 70.19 34.1749 70.966 36.9199C72.224 41.3719 72.585 46.317 72.068 52.04C71.783 55.193 71.027 57.966 69.758 60.514C68.631 62.778 66.812 64.403 64.198 65.484C61.187 66.728 57.893 66.997 55.042 67.15C52.614 67.283 50.139 67.3749 47.687 67.4219C46.553 67.4449 46.159 67.8899 45.703 68.4039L45.483 68.649C44.117 70.127 40.703 73.4299 39.195 74.8799Z" fill="#A3A3CD"/>
<path d="M49.598 27.4C51.878 27.4 54.219 27.582 56.756 27.956C59.885 28.418 63.174 29.114 66.027 31.06C68.157 32.513 69.552 34.492 70.293 37.111C71.528 41.48 71.881 46.342 71.372 51.977C71.095 55.042 70.363 57.732 69.133 60.203C68.084 62.308 66.383 63.824 63.932 64.837C61.024 66.039 57.799 66.301 55.005 66.452C52.566 66.584 50.099 66.675 47.673 66.723C46.34 66.75 45.777 67.267 45.181 67.94C45.117 68.012 45.048 68.09 44.969 68.175C43.903 69.328 41.568 71.613 39.89 73.238C39.886 71.56 39.885 69.506 39.902 68.14C39.918 66.799 39.31 65.865 38.044 65.285C37.549 65.058 36.968 64.853 36.407 64.656C35.634 64.385 34.835 64.103 34.343 63.797C32.038 62.362 30.47 60.124 29.55 56.953C28.507 53.361 28.179 49.458 28.547 45.02C28.711 43.048 28.996 40.974 29.419 38.68C30.174 34.579 32.573 31.661 36.752 29.761C39.018 28.73 41.539 28.088 44.926 27.677C46.434 27.493 48.006 27.4 49.598 27.4ZM49.598 26C47.988 26 46.374 26.09 44.756 26.286C41.787 26.646 38.905 27.242 36.171 28.485C31.836 30.457 28.924 33.627 28.041 38.425C27.647 40.567 27.331 42.733 27.151 44.903C26.803 49.099 27.022 53.272 28.204 57.342C29.123 60.507 30.749 63.208 33.602 64.984C34.632 65.625 36.354 66.048 37.459 66.556C38.16 66.877 38.511 67.272 38.501 68.121C38.469 70.814 38.501 76.09 38.501 76.09H38.944C38.944 76.09 44.194 71.075 45.997 69.124C46.6 68.473 46.739 68.141 47.701 68.121C50.162 68.072 52.623 67.981 55.08 67.848C58.301 67.674 61.475 67.365 64.466 66.129C67.055 65.059 69.11 63.385 70.385 60.825C71.755 58.075 72.489 55.157 72.765 52.101C73.234 46.911 73.065 41.771 71.639 36.728C70.836 33.89 69.267 31.574 66.815 29.901C63.839 27.871 60.428 27.081 56.96 26.569C54.514 26.21 52.06 26 49.598 26Z" fill="#472B29"/>
<path d="M36.454 61.988C37.305 62.508 38.727 62.852 39.64 63.264Z" fill="#A3A3CD"/>
<path d="M39.64 63.764C39.572 63.764 39.501 63.75 39.435 63.72C39.086 63.563 38.661 63.416 38.223 63.265C37.501 63.016 36.755 62.758 36.194 62.415C35.958 62.27 35.884 61.963 36.028 61.727C36.173 61.492 36.481 61.415 36.716 61.561C37.184 61.847 37.879 62.087 38.55 62.319C39.019 62.481 39.474 62.639 39.847 62.807C40.099 62.921 40.211 63.217 40.097 63.469C40.012 63.654 39.831 63.764 39.64 63.764Z" fill="#472B29"/>
<path d="M31.994 55.787C32.416 57.214 33.018 58.525 33.874 59.655Z" fill="#A3A3CD"/>
<path d="M33.875 60.155C33.724 60.155 33.574 60.087 33.476 59.957C32.625 58.834 31.983 57.517 31.515 55.929C31.437 55.664 31.588 55.386 31.853 55.308C32.119 55.234 32.396 55.381 32.474 55.646C32.908 57.116 33.496 58.329 34.273 59.354C34.44 59.574 34.397 59.887 34.176 60.054C34.086 60.122 33.98 60.155 33.875 60.155Z" fill="#472B29"/>
<path d="M31.124 45.6941C30.911 48.2101 30.955 50.7161 31.386 53.1861Z" fill="#A3A3CD"/>
<path d="M31.386 53.6871C31.148 53.6871 30.936 53.5161 30.894 53.2731C30.48 50.9071 30.393 48.4141 30.626 45.6531C30.649 45.3791 30.894 45.1941 31.166 45.1971C31.441 45.2201 31.645 45.4621 31.622 45.7371C31.396 48.4121 31.48 50.8201 31.879 53.1011C31.926 53.3721 31.744 53.6321 31.472 53.6791C31.444 53.6851 31.415 53.6871 31.386 53.6871Z" fill="#472B29"/>
<path d="M68.807 51.536C69.195 47.325 69.055 43.154 67.877 39.062Z" fill="#A3A3CD"/>
<path d="M68.807 52.036C68.792 52.036 68.776 52.035 68.761 52.034C68.486 52.009 68.283 51.765 68.309 51.49C68.737 46.841 68.438 42.82 67.396 39.2C67.32 38.934 67.473 38.657 67.738 38.581C68.003 38.501 68.281 38.658 68.357 38.923C69.434 42.665 69.744 46.806 69.305 51.582C69.281 51.842 69.063 52.036 68.807 52.036Z" fill="#472B29"/>
<path d="M66.84 58.614C67.541 57.23 68.041 55.795 68.374 54.312Z" fill="#A3A3CD"/>
<path d="M66.84 59.114C66.764 59.114 66.687 59.096 66.614 59.06C66.368 58.935 66.269 58.634 66.394 58.388C67.052 57.088 67.554 55.681 67.886 54.202C67.947 53.933 68.215 53.763 68.483 53.823C68.753 53.884 68.922 54.151 68.861 54.421C68.511 55.981 67.981 57.467 67.285 58.839C67.198 59.014 67.022 59.114 66.84 59.114Z" fill="#472B29"/>
<path d="M35.818 40.2211C35.874 37.6571 37.839 36.2161 39.825 35.7791C40.584 35.6111 41.255 35.8791 41.819 36.4171C43.377 37.9041 44.608 39.6271 45.537 41.5621C45.944 42.4101 45.761 43.1611 45.069 43.7921C44.926 43.9231 44.776 44.0451 44.621 44.1621C43.044 45.3491 42.811 46.2461 43.652 48.0311C45.085 51.0701 47.459 53.1101 50.533 54.3761C51.344 54.7101 52.105 54.5451 52.725 53.8881C52.808 53.8001 52.902 53.7161 52.963 53.6141C54.175 51.5931 55.932 51.7931 57.554 52.9461C58.62 53.7041 59.656 54.5021 60.71 55.2751C62.316 56.4541 62.302 57.5631 61.325 59.1591C60.612 60.3251 59.544 61.1321 58.286 61.6581C57.367 62.0421 56.429 61.9611 55.524 61.5771C47.923 58.3611 41.964 53.2921 38.024 46.0061C37.212 44.5051 36.647 42.8711 36 41.2851C35.867 40.9601 35.875 40.5771 35.818 40.2211ZM54.454 47.5461C53.902 47.5461 53.454 47.0991 53.454 46.5461C53.454 44.6921 51.945 43.1831 50.091 43.1831C49.539 43.1831 49.091 42.7361 49.091 42.1831C49.091 41.6301 49.539 41.1831 50.091 41.1831C53.049 41.1831 55.454 43.5891 55.454 46.5461C55.454 47.0991 55.006 47.5461 54.454 47.5461Z" fill="white"/>
<path d="M58.624 47.637C58.569 47.637 58.513 47.632 58.457 47.623C57.913 47.531 57.545 47.015 57.638 46.471C57.697 46.118 57.727 45.755 57.727 45.391C57.727 41.818 54.82 38.911 51.247 38.911C50.883 38.911 50.519 38.941 50.166 39.001C49.621 39.086 49.105 38.725 49.014 38.181C48.923 37.636 49.289 37.12 49.834 37.029C50.296 36.951 50.772 36.912 51.247 36.912C55.923 36.912 59.727 40.717 59.727 45.392C59.727 45.868 59.687 46.342 59.609 46.804C59.527 47.291 59.104 47.637 58.624 47.637Z" fill="white"/>
<path d="M62.71 47.729C62.637 47.729 62.563 47.721 62.488 47.705C61.949 47.583 61.612 47.048 61.733 46.509C61.893 45.803 61.974 45.076 61.974 44.349C61.974 38.995 57.618 34.639 52.264 34.639C51.537 34.639 50.81 34.72 50.104 34.879C49.564 34.998 49.03 34.662 48.908 34.123C48.786 33.585 49.125 33.05 49.663 32.928C50.514 32.737 51.389 32.639 52.264 32.639C58.721 32.639 63.974 37.892 63.974 44.349C63.974 45.225 63.876 46.1 63.684 46.951C63.58 47.413 63.167 47.729 62.71 47.729Z" fill="white"/>
<path d="M50.504 59.285C50.46 59.285 50.416 59.273 50.375 59.249C44.997 56.02 40.767 51.6029 37.804 46.1249C37.189 44.9869 36.709 43.7629 36.245 42.5769C36.088 42.1769 35.931 41.776 35.769 41.379C35.664 41.123 35.637 40.852 35.61 40.588C35.599 40.478 35.588 40.368 35.57 40.261C35.628 37.434 37.778 35.974 39.77 35.534C40.559 35.355 41.327 35.6019 41.99 36.2359C43.541 37.7149 44.809 39.4699 45.761 41.4529C46.207 42.3829 46.026 43.2559 45.236 43.9749C45.088 44.1109 44.931 44.238 44.769 44.36C43.279 45.481 43.087 46.2479 43.876 47.9229C43.935 48.0479 43.881 48.1959 43.756 48.2559C43.632 48.3149 43.482 48.262 43.423 48.136C42.53 46.241 42.784 45.2269 44.467 43.9599C44.616 43.8489 44.76 43.7309 44.897 43.6059C45.524 43.0339 45.659 42.3999 45.308 41.6689C44.383 39.7399 43.15 38.0339 41.643 36.5969C41.098 36.0769 40.503 35.8819 39.875 36.0219C38.068 36.4199 36.118 37.734 36.064 40.226C36.08 40.297 36.092 40.4169 36.104 40.5379C36.128 40.7749 36.15 41.0009 36.228 41.1889C36.391 41.5889 36.549 41.992 36.707 42.394C37.165 43.565 37.64 44.776 38.24 45.886C41.16 51.284 45.328 55.6359 50.629 58.8209C50.747 58.8909 50.786 59.046 50.714 59.164C50.671 59.242 50.588 59.285 50.504 59.285Z" fill="#472B29"/>
<path d="M57.043 62.158C56.519 62.158 55.979 62.041 55.426 61.807C54.65 61.478 53.88 61.125 53.138 60.757C53.014 60.696 52.964 60.546 53.025 60.422C53.088 60.298 53.237 60.25 53.36 60.31C54.093 60.673 54.854 61.022 55.622 61.346C56.531 61.732 57.395 61.757 58.19 61.426C59.486 60.884 60.469 60.077 61.112 59.027C62.093 57.424 61.949 56.495 60.562 55.475C60.164 55.183 59.768 54.887 59.373 54.592C58.722 54.106 58.072 53.619 57.41 53.149C56.481 52.488 55.599 52.225 54.853 52.376C54.203 52.513 53.64 52.972 53.178 53.742C53.115 53.846 53.034 53.93 52.962 54.003L52.908 54.059C52.222 54.786 51.345 54.979 50.439 54.607C48.82 53.939 47.414 53.064 46.259 52.006C46.157 51.912 46.151 51.754 46.244 51.652C46.339 51.55 46.496 51.546 46.597 51.636C47.708 52.655 49.065 53.498 50.629 54.143C51.35 54.441 51.995 54.295 52.544 53.714L52.605 53.651C52.663 53.592 52.718 53.537 52.75 53.483C53.286 52.589 53.959 52.051 54.751 51.885C55.635 51.701 56.653 51.996 57.701 52.739C58.366 53.213 59.02 53.701 59.674 54.189C60.069 54.484 60.463 54.779 60.86 55.071C62.458 56.244 62.655 57.466 61.541 59.287C60.842 60.429 59.78 61.303 58.384 61.886C57.95 62.068 57.503 62.158 57.043 62.158Z" fill="#472B29"/>
<path d="M45.23 50.803C45.157 50.803 45.085 50.772 45.036 50.71C44.71 50.31 44.405 49.881 44.13 49.438C44.057 49.321 44.093 49.167 44.211 49.093C44.328 49.023 44.482 49.058 44.555 49.174C44.819 49.6 45.111 50.011 45.424 50.396C45.511 50.502 45.495 50.66 45.388 50.748C45.342 50.784 45.286 50.803 45.23 50.803Z" fill="#472B29"/>
<path d="M54.454 47.796C53.765 47.796 53.204 47.235 53.204 46.546C53.204 44.829 51.808 43.433 50.091 43.433C49.402 43.433 48.841 42.872 48.841 42.183C48.841 41.494 49.402 40.933 50.091 40.933C50.483 40.933 50.875 40.974 51.256 41.055C51.391 41.083 51.478 41.216 51.449 41.351C51.421 41.486 51.286 41.576 51.153 41.543C50.806 41.47 50.449 41.433 50.091 41.433C49.677 41.433 49.341 41.77 49.341 42.183C49.341 42.596 49.677 42.933 50.091 42.933C52.083 42.933 53.704 44.554 53.704 46.546C53.704 46.959 54.04 47.296 54.454 47.296C54.868 47.296 55.204 46.959 55.204 46.546C55.204 44.694 54.197 42.983 52.575 42.078C52.454 42.011 52.411 41.858 52.478 41.737C52.546 41.615 52.697 41.572 52.818 41.64C54.598 42.633 55.704 44.513 55.704 46.545C55.704 47.235 55.143 47.796 54.454 47.796Z" fill="#472B29"/>
<path d="M53.156 37.377C53.137 37.377 53.119 37.375 53.1 37.37C52.495 37.23 51.871 37.16 51.247 37.16C51.109 37.16 50.997 37.048 50.997 36.91C50.997 36.772 51.109 36.66 51.247 36.66C51.909 36.66 52.57 36.735 53.212 36.884C53.347 36.914 53.43 37.049 53.4 37.184C53.373 37.299 53.27 37.377 53.156 37.377Z" fill="#472B29"/>
<path d="M58.624 47.887C58.556 47.887 58.488 47.881 58.418 47.87C58.086 47.814 57.798 47.634 57.604 47.361C57.411 47.089 57.335 46.757 57.391 46.428C57.448 46.088 57.477 45.739 57.477 45.39C57.477 41.954 54.682 39.16 51.247 39.16C50.897 39.16 50.547 39.189 50.207 39.246C49.521 39.359 48.88 38.892 48.767 38.222C48.653 37.541 49.113 36.896 49.792 36.782C49.927 36.76 50.057 36.849 50.08 36.986C50.103 37.123 50.011 37.252 49.875 37.274C49.467 37.343 49.191 37.731 49.26 38.139C49.328 38.541 49.72 38.818 50.127 38.753C50.491 38.691 50.869 38.66 51.247 38.66C54.958 38.66 57.977 41.68 57.977 45.39C57.977 45.767 57.946 46.144 57.884 46.511C57.85 46.709 57.896 46.907 58.012 47.071C58.128 47.235 58.301 47.342 58.498 47.377C58.885 47.426 59.293 47.165 59.362 46.762C59.438 46.314 59.476 45.852 59.476 45.391C59.476 42.126 57.54 39.166 54.543 37.85C54.417 37.795 54.359 37.648 54.415 37.521C54.471 37.396 54.619 37.338 54.745 37.393C57.923 38.789 59.976 41.928 59.976 45.391C59.976 45.88 59.935 46.37 59.855 46.845C59.754 47.448 59.236 47.887 58.624 47.887Z" fill="#472B29"/>
<path d="M62.71 47.979C62.617 47.979 62.524 47.969 62.434 47.949C61.762 47.797 61.338 47.126 61.49 46.454C61.645 45.766 61.724 45.058 61.724 44.349C61.724 39.133 57.48 34.889 52.264 34.889C51.556 34.889 50.848 34.968 50.159 35.123C49.484 35.269 48.815 34.846 48.664 34.179C48.512 33.507 48.935 32.836 49.608 32.684C50.479 32.489 51.372 32.389 52.264 32.389C52.402 32.389 52.514 32.501 52.514 32.639C52.514 32.777 52.402 32.889 52.264 32.889C51.409 32.889 50.553 32.984 49.718 33.172C49.315 33.263 49.061 33.665 49.152 34.068C49.243 34.468 49.643 34.716 50.05 34.634C50.774 34.471 51.519 34.388 52.264 34.388C57.756 34.388 62.224 38.856 62.224 44.348C62.224 45.093 62.141 45.839 61.977 46.563C61.886 46.966 62.14 47.37 62.543 47.46C62.929 47.549 63.351 47.286 63.44 46.894C63.628 46.061 63.723 45.205 63.723 44.348C63.723 40.228 61.488 36.403 57.89 34.367C57.77 34.299 57.727 34.146 57.795 34.026C57.863 33.904 58.017 33.863 58.136 33.931C61.891 36.057 64.223 40.048 64.223 44.348C64.223 45.242 64.123 46.135 63.927 47.004C63.799 47.578 63.297 47.979 62.71 47.979Z" fill="#472B29"/>
<path d="M56.427 33.652C56.397 33.652 56.367 33.647 56.338 33.635C55.65 33.372 54.933 33.177 54.208 33.052C54.072 33.029 53.981 32.9 54.004 32.764C54.027 32.626 54.155 32.529 54.293 32.56C55.049 32.69 55.797 32.894 56.516 33.168C56.645 33.217 56.71 33.361 56.661 33.49C56.623 33.591 56.528 33.652 56.427 33.652Z" fill="#472B29"/>
</svg>
